P1
40
40
0000000000000000000000000000001000000000000000000000000000000000000000000000000000000000000000000000000000000000000000000000000000000000000000000000100000000000000000000000000000000000001111000000000000000000000000000000000000111100000000000000000000000000000000000011110000000000000000000000000000000000000000000000000000000000000000000000100111111111100000000000000000000000000011111111111111011000000000000000000000001111111111111111100000000000000000000001111111111111111100000000000000000000001111111111111111111000000000000000000001111111111111111111110000000000000000000111111111111111111111000000000100100000111111111111111111111100000000011111110011111111111111111111110000000011111111101111111111111111111111000000001111111110111111111111111111111100000010111111111011111111111111111111100011111111111111111111111111111111111100000000101111111110111111111111111111111000000000111111111011111111111111111111110000000011111111101111111111111111111111000000000111111100111111111111111111111100000000010010000011111111111111111111110000000000000000000111111111111111111111000000000000000000011111111111111111111100000000000000000000111111111111111111100000000000000000000001111111111111111100000000000000000000000011111111111111111000000000000000000000001111111111111101100000000000000000000000100111111111100000000000000000000000000000000000000000000000000000000000000000000000001111000000000000000000000000000000000000111100000000000000000000000000000000000011110000000000000000000000000000000000000010000000000000000000000000000000000000000000000000000000000000000000000000000000000000000000